<svg xmlns="http://www.w3.org/2000/svg" xmlns:svg="http://www.w3.org/2000/svg" id="Layer_1" x="0" y="0" enable-background="new 1 0 331 331" version="1.1" viewBox="1 0 331 331" xml:space="preserve"><metadata id="metadata3687"/><path id="Fill-1" d="m 331.2,165.5 c 0,90.9 -73.7,164.6 -164.6,164.6 C 75.7,330.1 2,256.4 2,165.5 1.9,74.6 75.6,0.9 166.5,0.9 c 91,0 164.7,73.7 164.7,164.6" style="display:inline;opacity:1;fill:#1c75bc;fill-opacity:1"/><path style="opacity:1;fill:#faffff;fill-opacity:1;stroke-width:1.20966339" id="D" d="m 276.11918,119.98268 c -0.77364,-3.72426 -0.9762,-5.16843 -2.76832,-8.40847 -1.88873,-3.14724 -4.13704,-5.4068 -7.95536,-7.6136 -2.91251,-1.84201 -8.48594,-3.29474 -12.49761,-3.11028 l -148.86056,0.10622 -11.021562,32.94191 135.174672,-0.28369 -21.46959,65.46427 -135.174664,0.28368 -10.203205,32.55614 151.704489,0.0907 c 3.98167,-0.19051 9.94461,-2.07014 13.95955,-4.03338 4.61985,-2.33698 8.14293,-4.68365 12.2133,-8.11718 3.9534,-3.19106 7.53254,-7.88027 10.61816,-11.89953 2.25808,-4.14787 4.50467,-8.61282 5.6997,-12.97147 l 19.83141,-61.33899 c 0.90139,-3.78059 1.63799,-8.38441 0.74959,-13.66633 z" class="st0"/><path style="fill:#fff;fill-opacity:1;stroke-width:1.21753824;opacity:1" id="_-" d="M 146.70731,151.34435 H 66.782581 L 56.053628,181.71783 H 136.8222 Z" class="st0"/></svg>