<svg xmlns="http://www.w3.org/2000/svg" xmlns:xlink="http://www.w3.org/1999/xlink" id="Layer_1" x="0" y="0" enable-background="new 1 0 331 330" version="1.1" viewBox="1 0 331 330" xml:space="preserve"><path id="Fill-1" fill="#F9BF1A" d="M331.1,165.2c0,90.9-73.7,164.6-164.6,164.6	c-90.9,0-164.6-73.7-164.6-164.6C1.8,74.3,75.5,0.6,166.5,0.6C257.4,0.6,331.1,74.3,331.1,165.2"/><path id="Fill-3" fill="#FFF" d="M85.2,75.3h114.7c0,0,40.2,7.8,56.5,49.8c0,0,23.3,55.2-11.2,104.3	c0,0-21.5,27-48.4,27H85.2v-42.7h23.3v-95.5H85.6L85.2,75.3L85.2,75.3z"/><path id="Stroke-4" fill="none" stroke="#F9BF1A" d="M85.2,75.3h114.7c0,0,40.2,7.8,56.5,49.8	c0,0,23.3,55.2-11.2,104.3c0,0-21.5,27-48.4,27H85.2v-42.7h23.3v-95.5H85.6L85.2,75.3L85.2,75.3z"/><path id="Fill-5" fill="#F9BF1A" d="M159.6,118.2H184c0,0,11.3,2.4,19.2,24.7c0,0,10.5,32.1-6,57.6	c0,0-8.7,12.6-18.3,12.6h-19L159.6,118.2"/></svg>